<svg width="125" height="125" viewBox="0 0 125 125" fill="none" xmlns="http://www.w3.org/2000/svg">
<path d="M124.465 62.7675C124.465 28.3974 96.6026 0.534988 62.2325 0.534988C27.8624 0.534988 0 28.3974 0 62.7675C0 97.1376 27.8624 125 62.2325 125C96.6026 125 124.465 97.1376 124.465 62.7675ZM9.33487 62.7675C9.33487 33.5529 33.0179 9.86986 62.2325 9.86986C91.4471 9.86986 115.13 33.5529 115.13 62.7675C115.13 91.9821 91.4471 115.665 62.2325 115.665C33.0179 115.665 9.33487 91.9821 9.33487 62.7675Z" fill="#303030"/>
<mask id="mask0_315_5640" style="mask-type:alpha" maskUnits="userSpaceOnUse" x="60" y="0" width="65" height="97">
<path d="M109.749 95.263C111.876 96.7181 114.798 96.1806 116.089 93.9498C121.036 85.4057 123.891 75.786 124.387 65.8809C124.961 54.4182 122.354 43.02 116.855 32.9465C111.355 22.8729 103.177 14.5164 93.2242 8.80087C84.624 3.86197 74.9884 1.06129 65.1262 0.602272C62.5512 0.48243 60.5194 2.64908 60.5928 5.22578C60.6662 7.80249 62.8181 9.81031 65.3912 9.96423C73.53 10.4511 81.4687 12.8146 88.5755 16.8959C97.0352 21.7541 103.987 28.8571 108.661 37.4196C113.336 45.9821 115.552 55.6706 115.064 65.4139C114.654 73.599 112.349 81.5549 108.358 88.6643C107.096 90.912 107.621 93.8078 109.749 95.263Z" fill="#C60707" stroke="black" stroke-width="0.49786"/>
</mask>
<g mask="url(#mask0_315_5640)">
<path d="M113.372 89.1951C115.662 90.3785 118.496 89.4871 119.504 87.1148C125.311 73.4567 126.064 58.1146 121.528 43.8762C116.517 28.15 105.465 15.0583 90.8018 7.48107C76.1388 -0.0961512 59.0664 -1.5382 43.3402 3.47217C29.1017 8.00853 17.0229 17.4978 9.24111 30.1353C7.88951 32.3303 8.80143 35.1572 11.0915 36.3406C13.3815 37.524 16.1803 36.6132 17.5609 34.4363C24.1851 23.991 34.2953 16.151 46.1739 12.3665C59.5412 8.10772 74.0528 9.33346 86.5163 15.7741C98.9798 22.2147 108.374 33.3427 112.633 46.71C116.418 58.5885 115.871 71.3707 111.183 82.8164C110.206 85.2018 111.082 88.0117 113.372 89.1951Z" fill="white"/>
<path d="M113.372 89.1951C115.662 90.3785 118.496 89.4871 119.504 87.1148C125.311 73.4567 126.064 58.1146 121.528 43.8762C116.517 28.15 105.465 15.0583 90.8018 7.48107C76.1388 -0.0961512 59.0664 -1.5382 43.3402 3.47217C29.1017 8.00853 17.0229 17.4978 9.24111 30.1353C7.88951 32.3303 8.80143 35.1572 11.0915 36.3406C13.3815 37.524 16.1803 36.6132 17.5609 34.4363C24.1851 23.991 34.2953 16.151 46.1739 12.3665C59.5412 8.10772 74.0528 9.33346 86.5163 15.7741C98.9798 22.2147 108.374 33.3427 112.633 46.71C116.418 58.5885 115.871 71.3707 111.183 82.8164C110.206 85.2018 111.082 88.0117 113.372 89.1951Z" fill="url(#paint0_linear_315_5640)"/>
</g>
<path d="M25.2897 66.0181L27.6868 63.0057C29.1768 64.5605 31.5414 65.4675 33.6469 65.4675C36.2707 65.4675 37.7283 64.3338 37.7283 62.6818C37.7283 60.9326 36.4002 60.1228 33.3878 60.1228C32.4808 60.1228 31.0231 60.1228 30.6992 60.1552V56.1385C31.0879 56.1709 32.5456 56.1709 33.3878 56.1709C35.7848 56.1709 37.372 55.3935 37.372 53.7739C37.372 52.0571 35.6228 51.1825 33.3554 51.1825C31.2499 51.1825 29.3711 51.9923 27.8487 53.45L25.5813 50.5995C27.3304 48.6236 30.0514 47.1659 33.8413 47.1659C38.8944 47.1659 42.0041 49.4334 42.0041 53.0289C42.0041 55.7498 39.6718 57.5314 37.2748 57.9525C39.4775 58.1792 42.328 59.896 42.328 63.1352C42.328 66.8603 38.9916 69.4841 33.8089 69.4841C29.8246 69.4841 26.8769 67.9617 25.2897 66.0181ZM50.1641 69.0954V53.4176L46.601 57.0779L43.9772 54.3246L50.7796 47.4898H54.7962V69.0954H50.1641ZM58.4284 66.8279C58.4284 65.4027 59.6269 64.2042 61.0522 64.2042C62.4774 64.2042 63.6759 65.4027 63.6759 66.8279C63.6759 68.2532 62.4774 69.4517 61.0522 69.4517C59.6269 69.4517 58.4284 68.2532 58.4284 66.8279ZM66.7084 69.0954L74.4501 51.5389H63.5664V47.4898H79.7948V50.6967L71.7616 69.0954H66.7084Z" fill="#EDECED"/>
<rect x="85.1483" y="54.5076" width="20.7598" height="13.6577" rx="3.0901" stroke="#EDECED" stroke-width="0.546549"/>
<path d="M88.6934 60.8748C88.6934 58.6814 90.3566 57.2884 92.3837 57.2884C93.8183 57.2884 94.7227 57.9849 95.2528 58.8062L94.0262 59.4715C93.7039 58.9829 93.1114 58.5982 92.3837 58.5982C91.1259 58.5982 90.2111 59.565 90.2111 60.8748C90.2111 62.1846 91.1259 63.1514 92.3837 63.1514C93.0178 63.1514 93.5792 62.8915 93.8807 62.6213V61.7792H92.0303V60.511H95.336V63.1618C94.6291 63.9519 93.6416 64.4716 92.3837 64.4716C90.3566 64.4716 88.6934 63.0579 88.6934 60.8748ZM96.5078 64.3365V57.4028H100.157C101.477 57.4028 102.153 58.2448 102.153 59.17C102.153 60.0432 101.612 60.6253 100.957 60.7605C101.695 60.8748 102.288 61.5921 102.288 62.4653C102.288 63.5049 101.591 64.3365 100.271 64.3365H96.5078ZM97.984 60.1887H99.8344C100.333 60.1887 100.645 59.8665 100.645 59.4195C100.645 58.9933 100.333 58.6606 99.8344 58.6606H97.984V60.1887ZM97.984 63.0786H99.8863C100.448 63.0786 100.78 62.7564 100.78 62.2574C100.78 61.8208 100.468 61.4466 99.8863 61.4466H97.984V63.0786Z" fill="#EDECED"/>
<path d="M30.7791 83.0352H32.3541V84.1002C32.6341 83.7402 32.9841 83.4452 33.4041 83.2152C33.8241 82.9852 34.2591 82.8702 34.7091 82.8702V84.4302C34.5691 84.4002 34.4041 84.3852 34.2141 84.3852C33.8841 84.3852 33.5291 84.4852 33.1491 84.6852C32.7791 84.8752 32.5141 85.0952 32.3541 85.3452V90.2802H30.7791V83.0352ZM35.2293 86.6502C35.2293 85.9502 35.3843 85.3152 35.6943 84.7452C36.0143 84.1652 36.4543 83.7052 37.0143 83.3652C37.5743 83.0252 38.2043 82.8552 38.9043 82.8552C39.6143 82.8552 40.2393 83.0252 40.7793 83.3652C41.3193 83.7052 41.7343 84.1752 42.0243 84.7752C42.3243 85.3652 42.4743 86.0402 42.4743 86.8002V87.1752H36.8793C36.9393 87.7452 37.1743 88.2202 37.5843 88.6002C37.9943 88.9802 38.5293 89.1702 39.1893 89.1702C39.5593 89.1702 39.9293 89.1002 40.2993 88.9602C40.6793 88.8202 40.9943 88.6252 41.2443 88.3752L41.9643 89.4102C41.6043 89.7502 41.1693 90.0102 40.6593 90.1902C40.1493 90.3702 39.6043 90.4602 39.0243 90.4602C38.3043 90.4602 37.6543 90.3052 37.0743 89.9952C36.5043 89.6752 36.0543 89.2252 35.7243 88.6452C35.3943 88.0652 35.2293 87.4002 35.2293 86.6502ZM38.9043 84.1452C38.2843 84.1452 37.7993 84.3402 37.4493 84.7302C37.0993 85.1102 36.9043 85.5552 36.8643 86.0652H40.9443C40.9343 85.7552 40.8543 85.4552 40.7043 85.1652C40.5543 84.8652 40.3293 84.6202 40.0293 84.4302C39.7293 84.2402 39.3543 84.1452 38.9043 84.1452ZM52.6089 85.5552C52.6089 85.1452 52.5089 84.8252 52.3089 84.5952C52.1189 84.3652 51.8239 84.2502 51.4239 84.2502C51.0939 84.2502 50.7739 84.3452 50.4639 84.5352C50.1539 84.7252 49.9139 84.9502 49.7439 85.2102V90.2802H48.1689V85.5552C48.1689 85.1452 48.0689 84.8252 47.8689 84.5952C47.6789 84.3652 47.3789 84.2502 46.9689 84.2502C46.6489 84.2502 46.3339 84.3452 46.0239 84.5352C45.7239 84.7252 45.4839 84.9552 45.3039 85.2252V90.2802H43.7289V83.0352H45.3039V84.0252C45.4839 83.7552 45.7939 83.4952 46.2339 83.2452C46.6839 82.9852 47.1589 82.8552 47.6589 82.8552C48.1789 82.8552 48.6089 82.9752 48.9489 83.2152C49.2889 83.4552 49.5189 83.7802 49.6389 84.1902C49.8689 83.8302 50.2089 83.5202 50.6589 83.2602C51.1089 82.9902 51.5889 82.8552 52.0989 82.8552C52.7789 82.8552 53.2939 83.0402 53.6439 83.4102C54.0039 83.7702 54.1839 84.3152 54.1839 85.0452V90.2802H52.6089V85.5552ZM60.349 89.5002C60.079 89.8102 59.739 90.0502 59.329 90.2202C58.929 90.3802 58.489 90.4602 58.009 90.4602C57.599 90.4602 57.199 90.3702 56.809 90.1902C56.419 90.0002 56.099 89.7252 55.849 89.3652C55.609 89.0052 55.489 88.5702 55.489 88.0602C55.489 87.5302 55.609 87.0902 55.849 86.7402C56.099 86.3902 56.414 86.1302 56.794 85.9602C57.184 85.7902 57.589 85.7052 58.009 85.7052C58.499 85.7052 58.944 85.7852 59.344 85.9452C59.754 86.1052 60.089 86.3352 60.349 86.6352V85.5552C60.349 85.1352 60.194 84.8052 59.884 84.5652C59.574 84.3252 59.164 84.2052 58.654 84.2052C57.844 84.2052 57.129 84.5102 56.509 85.1202L55.864 84.0252C56.684 83.2452 57.699 82.8552 58.909 82.8552C59.799 82.8552 60.524 83.0652 61.084 83.4852C61.644 83.9052 61.924 84.5702 61.924 85.4802V90.2802H60.349V89.5002ZM60.349 87.5352C60.169 87.2952 59.924 87.1102 59.614 86.9802C59.314 86.8502 58.984 86.7852 58.624 86.7852C58.174 86.7852 57.804 86.9052 57.514 87.1452C57.224 87.3852 57.079 87.7002 57.079 88.0902C57.079 88.4802 57.224 88.7952 57.514 89.0352C57.804 89.2652 58.174 89.3802 58.624 89.3802C58.984 89.3802 59.314 89.3152 59.614 89.1852C59.924 89.0552 60.169 88.8702 60.349 88.6302V87.5352ZM64.446 81.8352C64.186 81.8352 63.956 81.7402 63.756 81.5502C63.566 81.3602 63.471 81.1302 63.471 80.8602C63.471 80.5902 63.566 80.3602 63.756 80.1702C63.956 79.9802 64.186 79.8852 64.446 79.8852C64.716 79.8852 64.946 79.9802 65.136 80.1702C65.326 80.3602 65.421 80.5902 65.421 80.8602C65.421 81.1302 65.326 81.3602 65.136 81.5502C64.946 81.7402 64.716 81.8352 64.446 81.8352ZM63.666 83.0352H65.241V90.2802H63.666V83.0352ZM71.8742 85.7502C71.8742 85.2102 71.7492 84.8252 71.4992 84.5952C71.2492 84.3652 70.8892 84.2502 70.4192 84.2502C70.0392 84.2502 69.6842 84.3452 69.3542 84.5352C69.0242 84.7252 68.7592 84.9552 68.5592 85.2252V90.2802H66.9842V83.0352H68.5592V84.0252C68.8292 83.7052 69.1892 83.4302 69.6392 83.2002C70.0892 82.9702 70.5792 82.8552 71.1092 82.8552C71.8792 82.8552 72.4592 83.0552 72.8492 83.4552C73.2492 83.8552 73.4492 84.4302 73.4492 85.1802V90.2802H71.8742V85.7502ZM75.9749 81.8352C75.7149 81.8352 75.4849 81.7402 75.2849 81.5502C75.0949 81.3602 74.9999 81.1302 74.9999 80.8602C74.9999 80.5902 75.0949 80.3602 75.2849 80.1702C75.4849 79.9802 75.7149 79.8852 75.9749 79.8852C76.2449 79.8852 76.4749 79.9802 76.6649 80.1702C76.8549 80.3602 76.9499 80.5902 76.9499 80.8602C76.9499 81.1302 76.8549 81.3602 76.6649 81.5502C76.4749 81.7402 76.2449 81.8352 75.9749 81.8352ZM75.1949 83.0352H76.7699V90.2802H75.1949V83.0352ZM83.4031 85.7502C83.4031 85.2102 83.2781 84.8252 83.0281 84.5952C82.7781 84.3652 82.4181 84.2502 81.9481 84.2502C81.5681 84.2502 81.2131 84.3452 80.8831 84.5352C80.5531 84.7252 80.2881 84.9552 80.0881 85.2252V90.2802H78.5131V83.0352H80.0881V84.0252C80.3581 83.7052 80.7181 83.4302 81.1681 83.2002C81.6181 82.9702 82.1081 82.8552 82.6381 82.8552C83.4081 82.8552 83.9881 83.0552 84.3781 83.4552C84.7781 83.8552 84.9781 84.4302 84.9781 85.1802V90.2802H83.4031V85.7502ZM87.3688 91.0002C87.6488 91.3302 87.9738 91.5652 88.3438 91.7052C88.7238 91.8552 89.1638 91.9302 89.6638 91.9302C90.2638 91.9302 90.7688 91.7702 91.1788 91.4502C91.5988 91.1402 91.8088 90.6452 91.8088 89.9652V89.0952C91.5188 89.4652 91.1738 89.7602 90.7738 89.9802C90.3738 90.1902 89.9438 90.2952 89.4838 90.2952C88.8638 90.2952 88.3088 90.1502 87.8188 89.8602C87.3388 89.5702 86.9588 89.1452 86.6788 88.5852C86.4088 88.0252 86.2738 87.3552 86.2738 86.5752C86.2738 85.8152 86.4088 85.1552 86.6788 84.5952C86.9588 84.0252 87.3388 83.5952 87.8188 83.3052C88.3088 83.0052 88.8638 82.8552 89.4838 82.8552C89.9438 82.8552 90.3738 82.9602 90.7738 83.1702C91.1738 83.3702 91.5188 83.6602 91.8088 84.0402V83.0352H93.3838V89.9052C93.3838 91.0952 93.0238 91.9452 92.3038 92.4552C91.5938 92.9652 90.7138 93.2202 89.6638 93.2202C89.0238 93.2202 88.4638 93.1352 87.9838 92.9652C87.5138 92.8052 87.0638 92.5302 86.6338 92.1402L87.3688 91.0002ZM91.8088 85.2252C91.6288 84.9552 91.3638 84.7252 91.0138 84.5352C90.6638 84.3452 90.3088 84.2502 89.9488 84.2502C89.3288 84.2502 88.8338 84.4652 88.4638 84.8952C88.0938 85.3152 87.9088 85.8752 87.9088 86.5752C87.9088 87.2752 88.0938 87.8402 88.4638 88.2702C88.8338 88.6902 89.3288 88.9002 89.9488 88.9002C90.3088 88.9002 90.6638 88.8052 91.0138 88.6152C91.3638 88.4252 91.6288 88.1952 91.8088 87.9252V85.2252Z" fill="#EDECED"/>
<defs>
<linearGradient id="paint0_linear_315_5640" x1="8.33687" y1="31.6517" x2="116.127" y2="93.8842" gradientUnits="userSpaceOnUse">
<stop stop-color="#C7F238"/>
<stop offset="0.191592" stop-color="#38F29E"/>
<stop offset="0.383906" stop-color="#41B6E6"/>
<stop offset="0.600012" stop-color="#C175FF"/>
<stop offset="0.778448" stop-color="#FF4BFF"/>
<stop offset="1" stop-color="#F4B480"/>
</linearGradient>
</defs>
</svg>
