<svg width="125" height="125" viewBox="0 0 125 125" fill="none" xmlns="http://www.w3.org/2000/svg">
<path d="M124.465 62.7675C124.465 28.3974 96.6026 0.534988 62.2325 0.534988C27.8624 0.534988 0 28.3974 0 62.7675C0 97.1376 27.8624 125 62.2325 125C96.6026 125 124.465 97.1376 124.465 62.7675ZM9.33487 62.7675C9.33487 33.5529 33.0179 9.86986 62.2325 9.86986C91.4471 9.86986 115.13 33.5529 115.13 62.7675C115.13 91.9821 91.4471 115.665 62.2325 115.665C33.0179 115.665 9.33487 91.9821 9.33487 62.7675Z" fill="#F8F8F8"/>
<mask id="mask0_315_4034" style="mask-type:alpha" maskUnits="userSpaceOnUse" x="60" y="0" width="65" height="97">
<path d="M109.749 95.263C111.876 96.7181 114.798 96.1806 116.089 93.9498C121.036 85.4057 123.891 75.786 124.387 65.8809C124.961 54.4182 122.354 43.02 116.855 32.9465C111.355 22.8729 103.177 14.5164 93.2242 8.80087C84.624 3.86197 74.9884 1.06129 65.1262 0.602272C62.5512 0.48243 60.5194 2.64908 60.5928 5.22578C60.6662 7.80249 62.8181 9.81031 65.3912 9.96423C73.53 10.4511 81.4687 12.8146 88.5755 16.8959C97.0352 21.7541 103.987 28.8571 108.661 37.4196C113.336 45.9821 115.552 55.6706 115.064 65.4139C114.654 73.599 112.349 81.5549 108.358 88.6643C107.096 90.912 107.621 93.8078 109.749 95.263Z" fill="#C60707" stroke="black" stroke-width="0.49786"/>
</mask>
<g mask="url(#mask0_315_4034)">
<path d="M113.372 89.1952C115.662 90.3786 118.496 89.4871 119.504 87.1149C125.311 73.4567 126.064 58.1147 121.528 43.8763C116.517 28.1501 105.465 15.0584 90.8018 7.48114C76.1388 -0.0960902 59.0664 -1.53814 43.3402 3.47223C29.1017 8.00859 17.0229 17.4978 9.24111 30.1354C7.88951 32.3304 8.80143 35.1572 11.0915 36.3407C13.3815 37.5241 16.1803 36.6132 17.5609 34.4363C24.1851 23.9911 34.2953 16.1511 46.1739 12.3666C59.5412 8.10778 74.0528 9.33352 86.5163 15.7742C98.9798 22.2148 108.374 33.3428 112.633 46.71C116.418 58.5886 115.871 71.3708 111.183 82.8165C110.206 85.2019 111.082 88.0118 113.372 89.1952Z" fill="white"/>
<path d="M113.372 89.1952C115.662 90.3786 118.496 89.4871 119.504 87.1149C125.311 73.4567 126.064 58.1147 121.528 43.8763C116.517 28.1501 105.465 15.0584 90.8018 7.48114C76.1388 -0.0960902 59.0664 -1.53814 43.3402 3.47223C29.1017 8.00859 17.0229 17.4978 9.24111 30.1354C7.88951 32.3304 8.80143 35.1572 11.0915 36.3407C13.3815 37.5241 16.1803 36.6132 17.5609 34.4363C24.1851 23.9911 34.2953 16.1511 46.1739 12.3666C59.5412 8.10778 74.0528 9.33352 86.5163 15.7742C98.9798 22.2148 108.374 33.3428 112.633 46.71C116.418 58.5886 115.871 71.3708 111.183 82.8165C110.206 85.2019 111.082 88.0118 113.372 89.1952Z" fill="url(#paint0_linear_315_4034)"/>
</g>
<path d="M25.2897 66.0182L27.6868 63.0057C29.1768 64.5606 31.5414 65.4675 33.6469 65.4675C36.2707 65.4675 37.7283 64.3338 37.7283 62.6818C37.7283 60.9326 36.4002 60.1228 33.3878 60.1228C32.4808 60.1228 31.0231 60.1228 30.6992 60.1552V56.1386C31.0879 56.171 32.5456 56.171 33.3878 56.171C35.7848 56.171 37.372 55.3936 37.372 53.774C37.372 52.0572 35.6228 51.1826 33.3554 51.1826C31.2499 51.1826 29.3711 51.9924 27.8487 53.4501L25.5813 50.5995C27.3304 48.6236 30.0514 47.166 33.8413 47.166C38.8944 47.166 42.0041 49.4334 42.0041 53.029C42.0041 55.7499 39.6718 57.5315 37.2748 57.9526C39.4775 58.1793 42.328 59.8961 42.328 63.1353C42.328 66.8604 38.9916 69.4842 33.8089 69.4842C29.8246 69.4842 26.8769 67.9617 25.2897 66.0182ZM50.1641 69.0955V53.4177L46.601 57.078L43.9772 54.3246L50.7796 47.4899H54.7962V69.0955H50.1641ZM58.4284 66.828C58.4284 65.4028 59.6269 64.2042 61.0522 64.2042C62.4774 64.2042 63.6759 65.4028 63.6759 66.828C63.6759 68.2533 62.4774 69.4518 61.0522 69.4518C59.6269 69.4518 58.4284 68.2533 58.4284 66.828ZM66.7084 69.0955L74.4501 51.5389H63.5664V47.4899H79.7948V50.6967L71.7616 69.0955H66.7084Z" fill="#121212"/>
<rect x="85.1483" y="54.5076" width="20.7598" height="13.6577" rx="3.0901" stroke="#121212" stroke-width="0.546549"/>
<path d="M88.6934 60.8748C88.6934 58.6813 90.3566 57.2884 92.3837 57.2884C93.8183 57.2884 94.7227 57.9849 95.2528 58.8061L94.0262 59.4714C93.7039 58.9828 93.1114 58.5982 92.3837 58.5982C91.1259 58.5982 90.2111 59.565 90.2111 60.8748C90.2111 62.1846 91.1259 63.1514 92.3837 63.1514C93.0178 63.1514 93.5792 62.8915 93.8807 62.6212V61.7792H92.0303V60.5109H95.336V63.1617C94.6291 63.9518 93.6416 64.4716 92.3837 64.4716C90.3566 64.4716 88.6934 63.0578 88.6934 60.8748ZM96.5078 64.3364V57.4027H100.157C101.477 57.4027 102.153 58.2447 102.153 59.1699C102.153 60.0431 101.612 60.6253 100.957 60.7604C101.695 60.8748 102.288 61.5921 102.288 62.4653C102.288 63.5048 101.591 64.3364 100.271 64.3364H96.5078ZM97.984 60.1887H99.8344C100.333 60.1887 100.645 59.8664 100.645 59.4194C100.645 58.9932 100.333 58.6606 99.8344 58.6606H97.984V60.1887ZM97.984 63.0786H99.8863C100.448 63.0786 100.78 62.7563 100.78 62.2574C100.78 61.8207 100.468 61.4465 99.8863 61.4465H97.984V63.0786Z" fill="#121212"/>
<path d="M30.7791 83.0353H32.3541V84.1003C32.6341 83.7403 32.9841 83.4453 33.4041 83.2153C33.8241 82.9853 34.2591 82.8703 34.7091 82.8703V84.4303C34.5691 84.4003 34.4041 84.3853 34.2141 84.3853C33.8841 84.3853 33.5291 84.4853 33.1491 84.6853C32.7791 84.8753 32.5141 85.0953 32.3541 85.3453V90.2803H30.7791V83.0353ZM35.2293 86.6503C35.2293 85.9503 35.3843 85.3153 35.6943 84.7453C36.0143 84.1653 36.4543 83.7053 37.0143 83.3653C37.5743 83.0253 38.2043 82.8553 38.9043 82.8553C39.6143 82.8553 40.2393 83.0253 40.7793 83.3653C41.3193 83.7053 41.7343 84.1753 42.0243 84.7753C42.3243 85.3653 42.4743 86.0403 42.4743 86.8003V87.1753H36.8793C36.9393 87.7453 37.1743 88.2203 37.5843 88.6003C37.9943 88.9803 38.5293 89.1703 39.1893 89.1703C39.5593 89.1703 39.9293 89.1003 40.2993 88.9603C40.6793 88.8203 40.9943 88.6253 41.2443 88.3753L41.9643 89.4103C41.6043 89.7503 41.1693 90.0103 40.6593 90.1903C40.1493 90.3703 39.6043 90.4603 39.0243 90.4603C38.3043 90.4603 37.6543 90.3053 37.0743 89.9953C36.5043 89.6753 36.0543 89.2253 35.7243 88.6453C35.3943 88.0653 35.2293 87.4003 35.2293 86.6503ZM38.9043 84.1453C38.2843 84.1453 37.7993 84.3403 37.4493 84.7303C37.0993 85.1103 36.9043 85.5553 36.8643 86.0653H40.9443C40.9343 85.7553 40.8543 85.4553 40.7043 85.1653C40.5543 84.8653 40.3293 84.6203 40.0293 84.4303C39.7293 84.2403 39.3543 84.1453 38.9043 84.1453ZM52.6089 85.5553C52.6089 85.1453 52.5089 84.8253 52.3089 84.5953C52.1189 84.3653 51.8239 84.2503 51.4239 84.2503C51.0939 84.2503 50.7739 84.3453 50.4639 84.5353C50.1539 84.7253 49.9139 84.9503 49.7439 85.2103V90.2803H48.1689V85.5553C48.1689 85.1453 48.0689 84.8253 47.8689 84.5953C47.6789 84.3653 47.3789 84.2503 46.9689 84.2503C46.6489 84.2503 46.3339 84.3453 46.0239 84.5353C45.7239 84.7253 45.4839 84.9553 45.3039 85.2253V90.2803H43.7289V83.0353H45.3039V84.0253C45.4839 83.7553 45.7939 83.4953 46.2339 83.2453C46.6839 82.9853 47.1589 82.8553 47.6589 82.8553C48.1789 82.8553 48.6089 82.9753 48.9489 83.2153C49.2889 83.4553 49.5189 83.7803 49.6389 84.1903C49.8689 83.8303 50.2089 83.5203 50.6589 83.2603C51.1089 82.9903 51.5889 82.8553 52.0989 82.8553C52.7789 82.8553 53.2939 83.0403 53.6439 83.4103C54.0039 83.7703 54.1839 84.3153 54.1839 85.0453V90.2803H52.6089V85.5553ZM60.349 89.5003C60.079 89.8103 59.739 90.0503 59.329 90.2203C58.929 90.3803 58.489 90.4603 58.009 90.4603C57.599 90.4603 57.199 90.3703 56.809 90.1903C56.419 90.0003 56.099 89.7253 55.849 89.3653C55.609 89.0053 55.489 88.5703 55.489 88.0603C55.489 87.5303 55.609 87.0903 55.849 86.7403C56.099 86.3903 56.414 86.1303 56.794 85.9603C57.184 85.7903 57.589 85.7053 58.009 85.7053C58.499 85.7053 58.944 85.7853 59.344 85.9453C59.754 86.1053 60.089 86.3353 60.349 86.6353V85.5553C60.349 85.1353 60.194 84.8053 59.884 84.5653C59.574 84.3253 59.164 84.2053 58.654 84.2053C57.844 84.2053 57.129 84.5103 56.509 85.1203L55.864 84.0253C56.684 83.2453 57.699 82.8553 58.909 82.8553C59.799 82.8553 60.524 83.0653 61.084 83.4853C61.644 83.9053 61.924 84.5703 61.924 85.4803V90.2803H60.349V89.5003ZM60.349 87.5353C60.169 87.2953 59.924 87.1103 59.614 86.9803C59.314 86.8503 58.984 86.7853 58.624 86.7853C58.174 86.7853 57.804 86.9053 57.514 87.1453C57.224 87.3853 57.079 87.7003 57.079 88.0903C57.079 88.4803 57.224 88.7953 57.514 89.0353C57.804 89.2653 58.174 89.3803 58.624 89.3803C58.984 89.3803 59.314 89.3153 59.614 89.1853C59.924 89.0553 60.169 88.8703 60.349 88.6303V87.5353ZM64.446 81.8353C64.186 81.8353 63.956 81.7403 63.756 81.5503C63.566 81.3603 63.471 81.1303 63.471 80.8603C63.471 80.5903 63.566 80.3603 63.756 80.1703C63.956 79.9803 64.186 79.8853 64.446 79.8853C64.716 79.8853 64.946 79.9803 65.136 80.1703C65.326 80.3603 65.421 80.5903 65.421 80.8603C65.421 81.1303 65.326 81.3603 65.136 81.5503C64.946 81.7403 64.716 81.8353 64.446 81.8353ZM63.666 83.0353H65.241V90.2803H63.666V83.0353ZM71.8742 85.7503C71.8742 85.2103 71.7492 84.8253 71.4992 84.5953C71.2492 84.3653 70.8892 84.2503 70.4192 84.2503C70.0392 84.2503 69.6842 84.3453 69.3542 84.5353C69.0242 84.7253 68.7592 84.9553 68.5592 85.2253V90.2803H66.9842V83.0353H68.5592V84.0253C68.8292 83.7053 69.1892 83.4303 69.6392 83.2003C70.0892 82.9703 70.5792 82.8553 71.1092 82.8553C71.8792 82.8553 72.4592 83.0553 72.8492 83.4553C73.2492 83.8553 73.4492 84.4303 73.4492 85.1803V90.2803H71.8742V85.7503ZM75.9749 81.8353C75.7149 81.8353 75.4849 81.7403 75.2849 81.5503C75.0949 81.3603 74.9999 81.1303 74.9999 80.8603C74.9999 80.5903 75.0949 80.3603 75.2849 80.1703C75.4849 79.9803 75.7149 79.8853 75.9749 79.8853C76.2449 79.8853 76.4749 79.9803 76.6649 80.1703C76.8549 80.3603 76.9499 80.5903 76.9499 80.8603C76.9499 81.1303 76.8549 81.3603 76.6649 81.5503C76.4749 81.7403 76.2449 81.8353 75.9749 81.8353ZM75.1949 83.0353H76.7699V90.2803H75.1949V83.0353ZM83.4031 85.7503C83.4031 85.2103 83.2781 84.8253 83.0281 84.5953C82.7781 84.3653 82.4181 84.2503 81.9481 84.2503C81.5681 84.2503 81.2131 84.3453 80.8831 84.5353C80.5531 84.7253 80.2881 84.9553 80.0881 85.2253V90.2803H78.5131V83.0353H80.0881V84.0253C80.3581 83.7053 80.7181 83.4303 81.1681 83.2003C81.6181 82.9703 82.1081 82.8553 82.6381 82.8553C83.4081 82.8553 83.9881 83.0553 84.3781 83.4553C84.7781 83.8553 84.9781 84.4303 84.9781 85.1803V90.2803H83.4031V85.7503ZM87.3688 91.0003C87.6488 91.3303 87.9738 91.5653 88.3438 91.7053C88.7238 91.8553 89.1638 91.9303 89.6638 91.9303C90.2638 91.9303 90.7688 91.7703 91.1788 91.4503C91.5988 91.1403 91.8088 90.6453 91.8088 89.9653V89.0953C91.5188 89.4653 91.1738 89.7603 90.7738 89.9803C90.3738 90.1903 89.9438 90.2953 89.4838 90.2953C88.8638 90.2953 88.3088 90.1503 87.8188 89.8603C87.3388 89.5703 86.9588 89.1453 86.6788 88.5853C86.4088 88.0253 86.2738 87.3553 86.2738 86.5753C86.2738 85.8153 86.4088 85.1553 86.6788 84.5953C86.9588 84.0253 87.3388 83.5953 87.8188 83.3053C88.3088 83.0053 88.8638 82.8553 89.4838 82.8553C89.9438 82.8553 90.3738 82.9603 90.7738 83.1703C91.1738 83.3703 91.5188 83.6603 91.8088 84.0403V83.0353H93.3838V89.9053C93.3838 91.0953 93.0238 91.9453 92.3038 92.4553C91.5938 92.9653 90.7138 93.2203 89.6638 93.2203C89.0238 93.2203 88.4638 93.1353 87.9838 92.9653C87.5138 92.8053 87.0638 92.5303 86.6338 92.1403L87.3688 91.0003ZM91.8088 85.2253C91.6288 84.9553 91.3638 84.7253 91.0138 84.5353C90.6638 84.3453 90.3088 84.2503 89.9488 84.2503C89.3288 84.2503 88.8338 84.4653 88.4638 84.8953C88.0938 85.3153 87.9088 85.8753 87.9088 86.5753C87.9088 87.2753 88.0938 87.8403 88.4638 88.2703C88.8338 88.6903 89.3288 88.9003 89.9488 88.9003C90.3088 88.9003 90.6638 88.8053 91.0138 88.6153C91.3638 88.4253 91.6288 88.1953 91.8088 87.9253V85.2253Z" fill="#121212"/>
<defs>
<linearGradient id="paint0_linear_315_4034" x1="8.33687" y1="31.6518" x2="116.127" y2="93.8843" gradientUnits="userSpaceOnUse">
<stop stop-color="#C7F238"/>
<stop offset="0.191592" stop-color="#38F29E"/>
<stop offset="0.383906" stop-color="#41B6E6"/>
<stop offset="0.600012" stop-color="#C175FF"/>
<stop offset="0.778448" stop-color="#FF4BFF"/>
<stop offset="1" stop-color="#F4B480"/>
</linearGradient>
</defs>
</svg>
